<svg width="82" height="82" viewBox="0 0 82 82" fill="none" xmlns="http://www.w3.org/2000/svg">
<path d="M3.38055 66.6809C3.61077 66.2625 3.69841 65.6667 3.69841 65.1892C3.69841 64.5941 3.82287 63.9815 4.00214 63.4258C4.08334 63.1741 4.01627 62.8228 4.01627 62.556C4.01627 62.1118 4.07984 61.6806 4.07984 61.2376C4.07984 60.8893 4.05284 60.5381 4.12928 60.1979C4.21786 59.8038 4.31311 59.3728 4.33766 58.9713C4.35651 58.663 4.5257 58.404 4.57428 58.1049C4.61455 57.857 4.58685 57.6008 4.6202 57.3506C4.66668 57.0017 4.65198 56.6484 4.65198 56.2973C4.65198 55.9326 4.65198 55.5679 4.65198 55.2032C4.65198 54.6181 4.83442 54.0709 4.8427 53.4975C4.86929 51.6557 4.8427 49.8115 4.8427 47.9693C4.8427 47.6791 4.77912 47.3969 4.77912 47.1131C4.77912 47.0833 4.74703 46.8531 4.75793 46.8447C4.83259 46.7872 5.29008 47.1259 5.36539 47.1573C5.64648 47.2745 6.0072 47.3254 6.30484 47.4155C6.76162 47.5539 7.22349 47.7609 7.69634 47.8436C8.25483 47.9413 8.7755 48.1416 9.3492 48.2106C10.1506 48.307 10.9121 48.3941 11.7367 48.3941C12.1131 48.3941 12.4664 48.5775 12.8597 48.5775C13.1963 48.5775 13.4837 48.6387 13.8063 48.6387C14.3386 48.6387 14.7929 49.0365 15.2966 49.1246C15.4017 49.143 14.8222 49.4849 14.7104 49.5289C14.3667 49.6642 14.0246 49.7447 13.7109 49.9536C13.3317 50.2062 13.017 50.5218 12.6372 50.7759C12.5031 50.8657 12.381 50.9744 12.2805 51.0987C12.1388 51.274 11.8783 51.3193 11.6943 51.4521C11.355 51.6968 10.8973 51.782 10.5323 51.9957C10.1434 52.2235 9.75685 52.3598 9.41983 52.6753C8.88062 53.18 8.44505 53.646 7.82702 54.0548C7.20935 54.4633 6.58274 54.8916 5.92341 55.244C5.46429 55.4894 5.06584 55.7632 4.68377 56.1308C4.55199 56.2576 3.9376 56.8166 4.15754 56.8817C4.2677 56.9143 4.3764 56.9096 4.48599 56.9564C4.57835 56.9959 4.55786 57.1097 4.68023 57.1433C4.77289 57.1688 5.04181 57.4719 5.11111 57.5477C5.56446 58.0433 6.32782 58.5418 7.00412 58.6825C8.16066 58.9231 9.30407 58.9136 10.4794 58.9136C11.1567 58.9136 11.9791 59.0587 12.5984 59.3417C13.1641 59.6002 13.7849 59.7052 14.3784 59.8955C14.7805 60.0245 15.2527 60.2659 15.6004 60.5037C15.9859 60.7674 16.5293 60.95 16.9495 61.1731C17.7552 61.6007 18.8258 61.6553 19.7043 61.8968C19.8784 61.9447 19.6023 60.966 19.5912 60.9114C19.5224 60.5732 19.4314 60.0551 19.2063 59.7664C18.9263 59.4073 18.6554 58.7171 18.6377 58.2748C18.6074 57.518 18.2815 56.8209 18.115 56.1002C18.0192 55.6854 18.0062 55.3669 17.7971 54.9721C17.6003 54.6005 17.4045 54.2724 17.1155 53.9596C16.5127 53.3072 16.3561 52.6037 16.0313 51.8224C15.8023 51.2717 15.5665 50.7616 15.3814 50.1949C15.3133 49.9863 15.2139 49.2241 15.0141 49.128" stroke="#BFBFBF" stroke-linecap="round"/>
<path d="M5.09698 46.6204C5.31992 46.5131 5.65609 46.453 5.84571 46.301C6.12648 46.0759 6.47816 45.8683 6.82047 45.7335C7.51997 45.4582 8.26405 45.1222 8.98896 44.9554C9.73486 44.7838 10.3891 44.3312 11.108 44.0822C11.4531 43.9627 11.7028 43.6803 12.0404 43.5759C12.1904 43.5295 12.4431 44.0149 12.4713 44.1434C12.5765 44.6245 13.1613 44.9911 13.2341 45.4583C13.299 45.8746 13.9919 46.1502 14.0641 46.532C14.0881 46.6591 14.2388 46.7131 14.3148 46.8106C14.427 46.9545 14.4821 47.1067 14.5726 47.2591C14.7347 47.5319 14.8762 47.8103 15.0282 48.0882C15.1674 48.3426 15.3113 48.5477 15.4591 48.7609" stroke="#BFBFBF" stroke-linecap="round"/>
<path d="M11.5177 43.5012C11.2825 43.4807 11.0797 43.26 10.889 43.1377C10.7779 43.0664 10.6484 43.0469 10.5359 42.978C10.3073 42.8381 10.0318 42.6156 9.90015 42.4003C9.69086 42.058 9.17161 41.9836 8.87948 41.7242C8.40918 41.3065 7.923 41.1603 7.33611 40.9461C7.19702 40.8953 7.12704 40.8102 6.97234 40.8102C6.85631 40.8102 6.67177 40.8449 6.6227 40.7151C6.55179 40.5275 6.27309 40.5389 6.11413 40.4296C5.86959 40.2616 5.81849 40.3776 5.55611 40.4908C4.85178 40.7946 4.30801 41.6266 4.14341 42.3392C4.05869 42.706 3.61045 42.9596 3.57127 43.3177C3.54315 43.5747 3.36444 43.877 3.31345 44.1468C3.22186 44.6315 2.98675 45.1324 2.85786 45.6146C2.76907 45.9468 2.84016 46.2844 2.80488 46.6238C2.78059 46.8575 2.68127 47.0507 2.68127 47.2931C2.68127 47.558 2.68637 47.8234 2.68127 48.0882C2.67622 48.3507 2.57763 48.6001 2.55766 48.8595C2.52875 49.235 2.57644 49.6095 2.52234 49.9842C2.41081 50.7568 2.43219 51.5574 2.20096 52.3082C2.08459 52.6861 2.10913 53.1619 2.10913 53.5586C2.10913 54.0592 2.10913 54.5598 2.10913 55.0604C2.10913 55.6868 2.28315 56.3001 2.37754 56.9156C2.50376 57.7386 2.49056 58.5411 2.49056 59.3756C2.49056 59.6663 2.55413 59.9572 2.55413 60.259C2.55413 60.7411 2.43823 61.2034 2.42699 61.6793C2.42044 61.9565 2.29985 62.0836 2.29985 62.3724C2.29985 62.7927 2.02385 63.3723 1.85131 63.7553C1.75053 63.9791 1.64038 64.4431 1.42397 64.6014C1.30912 64.6853 1.31858 64.8278 1.21913 64.8936C0.98447 65.0488 0.945785 65.5732 1.06727 65.794C1.36368 66.3326 1.69778 67.2049 2.33163 67.4759C2.79203 67.6727 3.64478 68.0476 3.75492 68.6039C3.88483 69.2601 3.84867 69.8556 3.63484 70.4727" stroke="#BFBFBF" stroke-linecap="round"/>
<path d="M4.07983 69.4942C4.52365 69.4705 4.67713 69.1067 5.06872 68.9811C5.57064 68.8202 6.06785 68.6938 6.55558 68.4885C7.09994 68.2593 7.61119 68.093 8.10602 67.7817C8.53836 67.5098 9.02418 67.1658 9.51165 66.9595C9.8369 66.8218 10.1556 66.6391 10.4723 66.4838C10.741 66.352 11.1747 66.1076 11.3764 65.8858C11.4816 65.7702 11.6236 65.7748 11.7366 65.6751C11.9028 65.5286 12.0696 65.406 12.2452 65.2708C12.5509 65.0355 12.8893 64.804 13.167 64.5369C13.4201 64.2934 13.6237 63.9959 13.8698 63.7452C14.0591 63.5523 14.1023 63.1382 14.3148 62.9977C14.4711 62.8943 14.5913 62.6841 14.728 62.5526C14.8945 62.3924 15.1139 62.2683 15.2966 62.1244C15.5882 61.895 15.7132 61.513 16.0312 61.3599" stroke="#BFBFBF" stroke-linecap="round"/>
<path d="M19.337 62.0327C19.6443 62.0327 20.0315 61.2503 20.2411 61.0406C20.453 60.8286 20.5704 60.4959 20.7638 60.2591C20.8932 60.1007 21.0833 59.8101 21.1205 59.6135C21.1817 59.2897 21.4944 58.9704 21.6114 58.6553C21.7284 58.3401 21.9766 58.0581 22.12 57.7515C22.2743 57.4217 22.3116 57.0587 22.5756 56.773C22.8541 56.4715 23.065 56.1013 23.3384 55.7944C24.2756 54.7426 25.0914 53.5744 26.0614 52.5665C26.4696 52.1424 26.6189 51.5325 26.9373 51.0511C27.2185 50.6259 27.4846 50.0692 27.8414 49.726C28.2413 49.3413 28.5842 48.9552 28.9998 48.5776C29.3584 48.2518 29.4866 47.8691 29.7309 47.4461C29.8721 47.2015 29.3135 47.316 29.2152 47.3272C28.8053 47.374 28.4094 47.4155 27.9968 47.4155C27.674 47.4155 27.2065 47.3397 26.902 47.4631C26.2679 47.7199 25.5339 47.6962 24.8677 47.8742C24.4831 47.977 24.0679 47.8667 23.6881 48.0407C23.3624 48.1899 22.88 48.1864 22.512 48.2072C22.328 48.2176 21.9383 48.1295 21.7845 48.2446C21.6129 48.3729 21.4538 48.3912 21.2441 48.4416C20.8379 48.5393 20.4492 48.6895 20.0504 48.8086C19.3408 49.0204 18.5442 49.2073 17.8113 49.3081C17.4811 49.3534 17.1126 49.3115 16.78 49.3115C16.5527 49.3115 16.0513 49.3919 15.9041 49.2503" stroke="#BFBFBF" stroke-linecap="round"/>
<path d="M5.28769 40.5044C5.42239 40.4882 5.69109 40.0346 5.78213 39.92C5.99605 39.6509 6.32329 39.4808 6.54499 39.2201C6.95895 38.7333 7.65742 38.4516 8.13427 38.0105C8.68423 37.5017 9.40832 37.0541 10.0697 36.6786C10.4954 36.4368 10.8732 36.2523 11.2281 35.9175C11.5986 35.5679 11.8156 35.2174 12.0934 34.8166C12.3991 34.3754 12.4885 33.9403 12.9127 33.5662C12.952 33.5316 13.2238 33.2007 13.2306 33.1619C13.2747 32.907 13.5935 33.412 13.7074 33.5016C14.4068 34.0522 15.3781 34.4731 15.7628 35.3059C15.9018 35.6067 16.0596 35.877 16.2078 36.1621C16.2982 36.336 16.3702 36.4833 16.4621 36.6514C16.5521 36.8158 16.4921 37.0182 16.667 37.1271C16.783 37.1993 16.9872 37.5825 17.0343 37.7047C17.1272 37.9461 17.0045 37.9722 16.9848 38.2279C16.9689 38.4351 16.4032 39.0378 16.222 39.125C16.0371 39.2139 15.9002 39.4726 15.7063 39.5259C15.349 39.6241 15.1388 39.8872 14.8234 40.039C14.4019 40.2417 13.7585 40.6295 13.4849 41.0243C13.4026 41.143 13.2363 41.1971 13.1352 41.2995C13.0616 41.3741 13.0194 41.4942 12.948 41.5781C12.786 41.7687 12.6015 41.9381 12.4395 42.1286C12.2156 42.3918 11.8252 42.6748 11.7084 43.012" stroke="#BFBFBF" stroke-linecap="round"/>
<path d="M13.1705 32.8594C13.6589 32.8594 14.0673 32.8157 14.5373 32.7371C14.831 32.6879 15.103 32.5138 15.4026 32.4958C15.8293 32.4702 16.1961 32.4514 16.6069 32.3361C16.9676 32.2349 17.2832 32.2138 17.6276 32.0609C18.0005 31.8953 18.3938 31.784 18.7648 31.6056C18.977 31.5035 19.2633 31.307 19.4959 31.2726C19.6858 31.2445 19.9869 31.2592 20.1386 31.1469C20.4654 30.9051 20.9439 31.1016 21.2935 30.9023C21.6146 30.7192 22.0608 30.7394 22.3883 30.8887C22.6402 31.0035 22.8746 31.3707 22.8969 31.6498C22.9332 32.1035 23.4484 32.2121 23.6456 32.5536C23.7263 32.6933 23.8649 32.7276 23.9176 32.8628C23.9933 33.0571 24.2205 33.3023 24.3873 33.4336C24.6375 33.6305 24.6432 33.8321 24.8358 34.0792C24.8997 34.1611 25.19 34.6123 25.0866 34.6976C24.8213 34.9163 24.6069 35.2157 24.299 35.3907C24.0621 35.5254 23.7805 35.6419 23.5644 35.7951C23.3481 35.9484 23.0369 35.9419 22.7839 36.0261C22.4966 36.1218 22.1916 36.1347 21.8939 36.1756C21.3076 36.2562 20.7446 36.4048 20.1987 36.5901C19.7447 36.7443 19.2819 37.0399 18.8142 37.127C18.5652 37.1734 18.3432 37.3418 18.1291 37.3852C17.933 37.4249 17.2983 37.948 17.2391 38.1191" stroke="#BFBFBF" stroke-linecap="round"/>
<path d="M17.3663 38.1803C17.4166 38.6647 18.197 39.0974 18.4894 39.4307C18.6858 39.6547 18.9716 39.8622 19.2098 40.0423C19.5217 40.2781 19.833 40.6024 20.1634 40.7966C20.7869 41.1632 21.2047 41.705 21.8516 42.0334C22.523 42.3743 23.1108 42.8934 23.8117 43.2158C24.0535 43.3271 24.3049 43.4074 24.5498 43.5284C24.9347 43.7186 25.1897 43.8573 25.5387 44.0857C25.6829 44.18 25.9187 44.4299 26.0755 44.473C26.1869 44.5036 26.2996 44.5526 26.3934 44.6293C26.6289 44.8219 27.0933 44.9432 27.2339 45.2137C27.4031 45.5391 27.8382 45.8699 28.1098 46.1311C28.2339 46.2505 28.3845 46.3672 28.523 46.4709C28.6066 46.5334 28.7206 46.6229 28.8091 46.668C28.8852 46.7067 29.0058 46.6429 29.0634 46.7121C29.29 46.9847 29.0719 46.6693 29.0634 46.5253C29.0463 46.2375 28.9998 45.9596 28.9998 45.6656C28.9998 45.402 29.0191 45.2501 28.8868 45.0302C28.7547 44.8108 28.7111 44.568 28.5548 44.3575C28.2801 43.9874 28.2245 43.3738 27.8838 43.0459C27.5641 42.7384 27.354 42.1156 27.2339 41.6665C27.0975 41.1559 26.8829 40.7236 26.7254 40.2122C26.6388 39.9311 26.601 39.6537 26.4887 39.373C26.3893 39.1242 26.2376 38.7454 26.1991 38.4861C26.1579 38.2085 25.9292 37.9061 25.8212 37.6435C25.6857 37.3137 25.5884 36.9612 25.4716 36.6242C25.3332 36.2246 25.0584 35.7238 25.0584 35.3058" stroke="#BFBFBF" stroke-linecap="round"/>
<path d="M23.1513 31.0247C24.3121 31.382 25.4982 31.5139 26.7113 31.5139C27.972 31.5139 29.1665 32.0032 30.4231 32.0032C31.0202 32.0032 31.6121 32.0764 32.2067 32.1221C32.5311 32.1471 32.9039 32.0613 33.2203 32.1289C33.396 32.1665 33.6135 32.2011 33.7959 32.2513C33.8777 32.2737 33.8174 32.5445 33.8383 32.6148C33.8906 32.7909 34.0825 32.9485 34.2127 33.0701C34.418 33.262 34.7213 33.4683 34.7213 33.7769C34.7213 33.9819 34.9462 34.205 34.6436 34.205C33.7646 34.205 32.9705 34.2245 32.1184 34.3884C31.8036 34.449 31.5095 34.4372 31.1895 34.453C30.8816 34.4682 30.3508 34.4275 30.0806 34.5719C29.6253 34.8152 29.0353 34.6196 28.5513 34.7826C27.6905 35.0724 26.6588 34.9389 25.7577 34.9389" stroke="#BFBFBF" stroke-linecap="round"/>
<path d="M20.0999 62.3996C20.1275 62.3286 20.5601 62.1259 20.6508 62.0938C21.0192 61.9636 21.5747 61.8081 21.9717 61.788C22.6509 61.7536 23.3715 61.5534 24.0483 61.4516C25.1059 61.2927 26.144 61.0325 27.2057 60.8842C28.0874 60.7611 29.1146 60.6462 29.9146 60.2318C30.1597 60.1048 30.4546 60.1321 30.7163 60.045C31.0314 59.94 31.3352 59.8501 31.6345 59.7222C31.8148 59.6451 31.8547 59.5613 31.7829 59.328C31.711 59.0947 31.7334 58.8543 31.7334 58.6111C31.7334 57.9103 31.7439 57.3218 31.5074 56.6506C31.2196 55.8338 30.8154 54.9827 30.6244 54.143C30.4437 53.3481 30.2932 52.5091 29.9887 51.7442C29.8332 51.3536 29.7627 50.9419 29.7627 50.521C29.7627 50.0782 29.5084 49.7261 29.5084 49.2842C29.5084 49.032 29.3504 48.8302 29.3212 48.5775C29.2959 48.3585 29.3177 48.1247 29.3177 47.9047C29.3177 47.4165 30.411 48.1494 30.7127 48.1494C31.0551 48.1494 31.4263 48.4073 31.7193 48.5639C32.3705 48.912 33.1099 49.0256 33.7677 49.342C34.2008 49.5503 34.5308 49.914 34.9755 50.1337C35.4932 50.3894 35.9158 50.7301 36.4059 51.0171C36.828 51.2642 37.2691 51.5105 37.7126 51.7238C38.2419 51.9784 38.854 52.1047 39.362 52.4034C39.9342 52.7398 40.5221 53.0955 41.0501 53.4907C41.3799 53.7374 41.8702 54.0792 42.2651 54.2382C42.4625 54.3177 42.6719 54.3417 42.8619 54.4217C43.2426 54.5819 44.2248 54.5654 44.257 55.1216C44.2732 55.4031 43.5732 55.8822 43.3952 56.1001C42.8794 56.7317 42.564 57.5182 41.9684 58.0912C41.2407 58.7914 40.4676 59.4331 39.7399 60.1333C39.0803 60.7679 38.2944 61.2812 37.7091 61.9851C37.2545 62.5318 36.7382 62.9753 36.1869 63.4393C35.7238 63.8292 35.4642 64.3869 35.0462 64.812C34.6726 65.192 34.2551 65.4808 33.9867 65.9503C33.819 66.2436 33.7894 67.2664 33.7677 66.9322C33.748 66.6298 33.6255 66.3292 33.5629 66.0352C33.4616 65.5601 33.3141 65.1274 33.1355 64.6693C33.0232 64.3813 33.0548 64.072 32.853 63.8131C32.6907 63.6049 32.8381 63.057 32.8 62.8006C32.7496 62.4611 32.5695 62.183 32.5598 61.8492C32.5516 61.5632 32.3517 61.3581 32.3091 61.0915C32.2726 60.8631 32.1136 60.7198 32.0583 60.5071C32.003 60.2941 32.0158 60.1979 31.7334 60.1979" stroke="#BFBFBF" stroke-linecap="round"/>
<path d="M29.7627 47.5989C30.3551 47.5989 30.8927 47.4155 31.4862 47.4155C32.3068 47.4155 33.0643 47.1097 33.8736 47.1097C34.367 47.1097 34.7781 47.0477 35.2581 46.9534C35.6002 46.8861 35.9406 46.8203 36.2823 46.7495C36.6264 46.6782 36.9945 46.7082 37.3277 46.5932C37.7492 46.4477 38.1428 46.2673 38.585 46.1787C38.8789 46.1198 39.1772 46.1258 39.475 46.0835C40.5151 45.9359 41.5802 45.8865 42.6359 45.8865C42.9199 45.8865 43.3506 45.7824 43.5012 46.036C43.6298 46.2525 44.1124 46.4374 44.3205 46.5592C44.6488 46.7515 45.0269 46.8846 45.3341 47.1063C45.7465 47.4038 46.166 47.7428 46.5455 48.0882C46.8904 48.402 47.39 48.5879 47.8028 48.8085C48.0947 48.9645 48.3678 49.1403 48.6575 49.2978C49.1007 49.5388 49.4906 49.7531 49.883 50.0725C50.1707 50.3067 50.5261 50.4902 50.162 50.8404C49.544 51.435 48.8546 51.9602 48.1348 52.4306C47.8697 52.6038 47.5374 52.7056 47.3084 52.9199C47.0531 53.1586 46.778 53.3416 46.482 53.5314C46.1537 53.742 45.9135 54.0288 45.6061 54.2654C45.4088 54.4172 45.2056 54.5666 45.0198 54.7275C44.8045 54.9139 44.6032 54.9946 44.4477 55.2439" stroke="#BFBFBF" stroke-linecap="round"/>
<path d="M41.5869 45.6418C42.0714 45.6418 42.3856 45.6401 42.8266 45.4516C42.9637 45.3929 43.1178 45.1921 43.2398 45.105C43.4355 44.9651 43.6309 44.8606 43.8472 44.7516C44.2356 44.5559 44.7123 44.1178 44.769 43.6813C44.797 43.4658 44.9696 43.2103 45.0833 43.0256C45.1695 42.8857 45.2169 42.6663 45.3412 42.5567C45.5922 42.3352 45.8853 42.0146 46.051 41.7276C46.3545 41.202 47.1385 41.6951 47.5767 41.7888C47.9826 41.8755 48.3856 42.0334 48.8023 42.0334C49.0841 42.0334 49.3856 42.2344 49.6605 42.3052C50.5134 42.5248 51.3273 42.8737 52.1892 43.0731C52.43 43.1288 52.7402 43.1787 52.9662 43.2702C53.087 43.3191 53.1829 43.4401 53.3158 43.4401C54.0306 43.4401 53.5628 43.9958 53.3759 44.3915C53.1434 44.8836 52.8505 45.4259 52.5212 45.8559C52.0299 46.4973 51.4079 47.077 50.9955 47.7824C50.6528 48.3686 50.169 48.807 50.169 49.5255C50.169 49.8133 50.1055 50.0887 50.1055 50.3817C50.1055 50.7448 50.169 51.0989 50.169 51.4554C50.169 51.9125 50.2818 52.2778 50.3633 52.7092C50.4524 53.1805 50.7811 53.6067 50.8048 54.0955C50.8337 54.6935 50.9644 55.2704 51.1085 55.8555C51.2339 56.3649 51.3647 56.9293 51.3769 57.4593C51.3903 58.0387 51.617 58.5561 51.6312 59.1446C51.6422 59.6014 51.5916 60.0569 51.6948 60.5037C51.8136 61.018 51.6273 61.6486 51.8537 62.1278C52.0604 62.5654 51.7282 63.1404 51.9773 63.5855C52.052 63.719 52.0952 63.8339 52.0762 63.9898C52.0641 64.0883 51.7115 63.6953 51.6559 63.65C51.0445 63.1523 51.0066 62.3086 50.4728 61.7744C50.1992 61.5007 50.087 61.2337 49.724 61.0541C49.2273 60.8083 48.858 60.4091 48.3255 60.2115C47.3541 59.851 46.4418 59.1251 45.8956 58.2883C45.6981 57.9857 45.4196 57.7324 45.2458 57.4219C45.1655 57.2785 44.9938 57.0395 44.8432 56.97C44.5311 56.8259 44.321 56.3145 44.0026 56.1613" stroke="#BFBFBF" stroke-linecap="round"/>
<path d="M44.0662 57.2622C43.7233 58.1531 43.1271 58.9709 42.9996 59.9396C42.8828 60.8274 42.5691 61.663 42.318 62.522C42.1712 63.0242 41.937 63.5015 41.7918 64.0034C41.6508 64.4905 41.438 64.9465 41.3009 65.4304C41.1897 65.8225 41.0267 66.1465 40.8241 66.4973C40.6422 66.8122 40.344 67.1147 40.2661 67.4759C40.1828 67.8617 40.0391 68.1835 39.9906 68.5802C39.9487 68.9224 39.8523 69.2732 39.7928 69.6165C39.6665 70.3453 39.6295 71.0972 39.4538 71.8216C39.2212 72.7803 39.2348 73.7104 39.2348 74.6928" stroke="#BFBFBF" stroke-linecap="round"/>
<path d="M33.3227 66.9255C33.3227 68.0143 33.0342 69.0634 32.6587 70.0956C32.3757 70.8734 32.5598 71.9144 32.5598 72.7322C32.5598 73.6576 32.5598 74.5829 32.5598 75.5082C32.5598 76.0006 32.3691 76.4638 32.3691 76.9557C32.3691 77.4461 32.3691 77.9365 32.3691 78.4269C32.3691 78.7633 32.3691 79.0997 32.3691 79.436C32.3691 79.806 32.7169 79.8674 32.8777 80.136C33.1332 80.563 33.4591 80.5029 33.9231 80.5029C34.4809 80.5029 34.9418 80.5183 35.4841 80.6524C36.1194 80.8096 36.8035 80.8056 37.4548 80.9175C38.1357 81.0344 38.8379 81.0114 39.5244 80.9447C39.9217 80.906 40.3199 80.779 40.6334 80.5505C40.8511 80.3918 41.2507 80.3151 41.2691 80.0137C41.2772 79.8813 41.4995 79.5591 41.5658 79.4258C41.6661 79.2239 41.8309 79.055 41.9366 78.8516C42.0276 78.6766 42.0083 78.5131 42.0637 78.3318C42.1784 77.9566 41.719 77.7708 41.5622 77.5027C41.3794 77.1901 41.0897 76.8892 40.8311 76.6227C39.9011 75.664 39.3461 74.4843 38.698 73.3506C38.5077 73.0178 38.2047 72.8121 37.9916 72.5046C37.8667 72.3243 37.7638 72.1144 37.6102 71.9406C37.3959 71.6981 37.2235 71.3581 37.0239 71.0979C36.6034 70.5494 36.1312 70.0492 35.7031 69.5078C35.5359 69.2964 35.3889 68.8852 35.1662 68.7467C35.0394 68.6677 34.6817 68.3658 34.6082 68.2438C34.4789 68.0288 34.2127 67.7368 34.2127 67.4759C34.2127 67.2667 34.0016 67.1995 34.1491 66.9866" stroke="#BFBFBF" stroke-linecap="round"/>
<path d="M41.9684 65.3965C41.982 65.7382 42.1735 65.9269 42.2898 66.229C42.5306 66.8545 42.9126 67.3313 43.2433 67.9041C43.5153 68.375 43.8399 68.8947 44.1616 69.3345C44.3316 69.5669 44.5421 69.8843 44.5783 70.1636C44.6422 70.6551 44.9426 71.1098 45.0198 71.611C45.1233 72.283 45.2858 73.0318 45.207 73.7143C45.1396 74.2982 44.9303 74.8678 44.8432 75.4539C44.7513 76.0731 44.5368 76.6306 44.3347 77.214C44.1822 77.654 44.0832 78.0764 44.0662 78.5323C44.0577 78.7633 43.8846 78.9724 43.8261 79.1915C43.788 79.3341 43.812 79.5 43.812 79.6468C43.812 79.7938 43.945 79.7775 44.038 79.8914C44.1912 80.079 44.5791 80.3156 44.8008 80.435C45.3592 80.7359 45.7753 80.65 46.376 80.6899C47.1811 80.7433 47.9182 80.9311 48.7317 80.9311C49.4935 80.9311 50.6142 81.1244 51.2851 80.7137C51.4514 80.6119 51.6737 80.5025 51.8184 80.3807C51.9486 80.2711 52.1088 80.0746 52.2669 80.0137C52.359 79.9783 52.3892 79.8543 52.4718 79.7929C52.6721 79.644 52.9032 79.5171 53.0828 79.3444C53.2545 79.1792 53.2205 78.9078 53.2205 78.6954C53.2205 78.169 52.8113 77.5918 52.5142 77.163C52.2663 76.8053 51.9707 76.4821 51.7195 76.1267C51.516 75.8388 51.128 75.6154 50.8684 75.3656C50.503 75.0141 50.0152 74.7713 49.5828 74.5093C48.9834 74.1463 48.0748 73.9865 47.6121 73.4696C47.3501 73.1769 46.9132 73.1027 46.6232 72.8444C46.5474 72.7769 46.274 72.6952 46.2418 72.6474C46.132 72.4842 45.9362 72.4378 45.8604 72.2464C45.7741 72.0286 45.7191 71.6313 45.7191 71.3902C45.7191 71.0645 46.1113 70.781 46.3195 70.5407C46.4644 70.3735 46.7629 70.2347 46.8598 70.0481C46.9525 69.8699 47.1918 69.6505 47.3508 69.518C47.9341 69.0316 48.4342 68.471 48.9965 67.9618C49.5516 67.4593 49.8327 66.9436 50.102 66.2528C50.2729 65.8144 50.4065 65.6313 50.8048 65.3489C50.9173 65.2692 51.0286 65.1913 51.1227 65.0907C51.1865 65.0225 51.1732 64.9149 51.2498 64.8597C51.3339 64.799 51.3506 64.6608 51.4405 64.5743C51.6664 64.3569 51.6284 64.9956 51.6312 65.1519C51.6451 65.9102 51.6312 66.6699 51.6312 67.4284C51.6312 68.2232 51.5829 69.0985 51.7442 69.8748C51.8977 70.6128 51.7594 71.3638 51.8361 72.1105C51.8864 72.6012 51.8855 73.0848 51.8855 73.5783C51.8855 74.0211 51.7584 74.454 51.7584 74.8899C51.7584 75.1749 51.8219 75.4638 51.8219 75.7325" stroke="#BFBFBF" stroke-linecap="round"/>
<path d="M19.464 62.4608C19.464 62.8546 19.5942 63.4939 19.3652 63.8403C19.1086 64.2282 19.0264 64.8745 19.019 65.3217C19.0079 65.9945 19.0219 66.863 18.8001 67.5031C18.7418 67.6712 18.7542 67.8089 18.6694 67.972C18.5327 68.2349 18.3755 68.5441 18.288 68.8248C18.0662 69.5361 17.7476 70.1722 17.7476 70.928C17.7476 71.3867 17.7476 71.8454 17.7476 72.3041C17.7476 73.1515 18.2243 73.9405 18.2562 74.7675C18.276 75.2835 18.6877 75.7112 18.9484 76.1232C19.1867 76.4999 19.4038 76.877 19.5417 77.275C19.6486 77.5834 19.7819 77.8133 19.7819 78.1483C19.7819 78.3227 19.7819 78.4971 19.7819 78.6715C19.7819 78.8828 19.6389 78.9696 19.5629 79.1574C19.3835 79.6014 18.8337 79.5468 18.4186 79.6331C18.1329 79.6925 17.9483 79.7206 17.6699 79.8302C17.4691 79.9092 17.249 79.8499 17.0625 79.9525C16.5986 80.2075 15.8165 80.0748 15.286 80.0748C14.5841 80.0748 13.852 80.1504 13.1705 79.9865C13.0015 79.9458 12.8347 79.9001 12.6619 79.8913C12.4547 79.8808 12.2355 79.6905 12.0121 79.6603C11.5873 79.6028 10.8586 79.7558 11.2351 79.1302C11.543 78.6185 11.9626 78.1797 11.9626 77.5673C11.9626 77.2386 11.982 76.9114 11.9132 76.5887C11.8625 76.3508 11.7759 76.0834 11.7719 75.8412C11.758 74.9976 11.8477 74.1259 11.7684 73.2861C11.719 72.7632 11.5704 72.2327 11.5035 71.7095C11.3496 70.5069 11.5812 69.2931 11.5812 68.0841C11.5812 67.6933 11.5812 67.3026 11.5812 66.9119C11.5812 66.7313 11.5289 65.9205 11.5883 66.4769C11.6391 66.9539 11.9453 67.4312 12.2028 67.8292C12.5312 68.3369 12.7936 68.8782 13.121 69.3854C13.5478 70.0465 13.99 70.6831 14.4419 71.329C14.7594 71.7828 15.057 72.1038 15.4908 72.457C15.7793 72.6918 16.1641 73.139 16.508 73.2861C16.8406 73.4283 16.9267 73.8457 17.2108 74.0336C17.3292 74.1119 17.6205 74.1985 17.6205 74.3869" stroke="#BFBFBF" stroke-linecap="round"/>
<path d="M11.0727 67.1701C10.8152 67.799 10.3653 68.3231 9.92843 68.8486C9.66494 69.1654 9.52667 69.4827 9.38807 69.8679C9.18805 70.4238 8.95615 71.0405 8.86184 71.6212C8.80022 72.0006 8.66602 72.3126 8.57931 72.6881C8.47 73.1613 8.27612 73.5659 8.20847 74.054C8.17638 74.2855 8.19698 74.559 8.1449 74.7845C8.08155 75.0587 7.63181 74.2637 7.50919 74.1457C7.10591 73.7577 6.59872 73.5766 6.12828 73.2861C5.73278 73.0418 5.05918 72.724 4.84272 72.3075C4.5719 71.7864 4.3287 71.3807 3.83971 71.0232C3.72237 70.9374 3.7557 70.9358 3.68431 71.0979C3.56613 71.3662 3.48704 71.6456 3.37705 71.9168C3.07135 72.6704 2.87303 73.4502 2.55415 74.2001C2.25315 74.9079 1.97756 75.5279 1.92197 76.3033C1.87949 76.8959 1.80094 77.4758 1.65003 78.0565C1.57068 78.3619 1.48221 78.7112 1.34983 78.9977C1.25583 79.2012 1.02916 79.6338 1.09555 79.8574C1.11235 79.9139 1.56445 79.9751 1.61118 79.9899C2.14559 80.1583 2.67378 80.2757 3.22519 80.3806C3.76954 80.4842 4.30275 80.6177 4.84272 80.7476C5.53339 80.9137 6.23179 80.8699 6.94058 80.8699C7.3609 80.8699 7.79415 80.9004 8.212 80.8563C8.69105 80.8058 9.12303 80.7223 9.57526 80.5641C9.72864 80.5104 9.84338 80.4158 10.0238 80.3772C10.4354 80.2892 9.69184 78.5191 9.67768 78.3012C9.63311 77.6151 9.40589 77.0991 9.16557 76.4664C8.94391 75.8827 8.53953 75.3323 8.33915 74.7539" stroke="#BFBFBF" stroke-linecap="round"/>
<path d="M30.2076 46.8039C30.5333 46.1773 30.7016 45.3771 31.4649 45.0779C31.6175 45.0181 31.6887 44.8918 31.864 44.8468C32.1519 44.773 32.4772 44.6233 32.7152 44.4493C33.2786 44.0373 33.9055 43.7023 34.3928 43.2023C34.8697 42.7129 35.1792 42.0858 35.6112 41.5578C36.0007 41.0817 36.4724 40.6002 36.9179 40.1715C37.643 39.474 38.2213 38.5866 38.6132 37.6911C38.7624 37.3503 38.1022 36.5733 37.928 36.2845C37.6871 35.8847 37.4765 35.4569 37.1864 35.0884C36.6513 34.4089 36.1228 33.7228 35.4523 33.1619C34.8025 32.6184 34.3261 32.1217 34.1208 31.3033C33.9853 30.7633 34.0983 30.0262 34.3398 29.5229C34.4125 29.3714 34.5154 29.2368 34.5305 29.0676C34.5467 28.8855 34.7128 28.7793 34.7707 28.6123C34.9142 28.1979 35.3531 27.7452 35.6183 27.3857C35.9227 26.9729 36.3503 26.6498 36.6919 26.2678C37.081 25.8328 37.7818 25.2472 38.3766 25.1228C38.9478 25.0033 39.4279 25.1955 39.9341 25.432C40.1624 25.5387 40.5138 25.7383 40.764 25.7684C41.1593 25.8159 41.5375 26.0139 41.933 26.0843C42.72 26.2246 43.457 26.2542 44.2569 26.2542C44.891 26.2542 45.5308 26.3194 46.1605 26.38C46.4369 26.4065 46.7659 26.4805 46.9905 26.6348C47.1498 26.7443 47.327 26.7559 47.499 26.8387C47.7165 26.9432 47.9103 27.0909 48.1277 27.1954C48.4158 27.334 48.6446 27.558 48.8976 27.7493C49.4436 28.162 49.4516 28.9279 49.7523 29.4651C49.862 29.6612 49.8899 29.9493 49.9925 30.1685C50.073 30.3407 50.1462 30.4914 50.2326 30.6577" stroke="#BFBFBF" stroke-linecap="round"/>
<path d="M42.9855 25.3979C43.6889 25.3829 44.0233 25.2596 44.5112 24.8237C44.9907 24.3954 45.3268 23.5753 45.9592 23.3049C46.0732 23.2562 46.4026 23.068 46.4819 22.9821C46.6066 22.8471 46.9124 22.7554 47.0859 22.6763C47.2283 22.6114 47.4289 22.4793 47.5768 22.4623C47.6606 22.4526 47.9204 22.3661 48.0076 22.3264C48.2694 22.2071 48.4869 22.1155 48.7811 22.0919C49.4275 22.0401 50.0373 21.8333 50.6706 21.7317C51.2128 21.6448 51.7957 21.6463 52.3305 21.5177C52.7207 21.4238 53.0917 21.2509 53.4783 21.1507C53.8194 21.0624 54.234 20.9002 54.5802 20.8755C54.7475 20.8636 54.939 20.8109 55.0958 20.8109C55.3618 20.8109 55.5025 21.4405 55.5974 21.6332C55.8341 22.1141 56.0106 22.6228 56.2578 23.1078C56.3635 23.3154 56.3814 23.5675 56.5262 23.7466C56.7319 24.001 56.8556 24.3304 57.0348 24.6063C57.1708 24.8156 57.4798 25.2874 57.4798 25.5203C57.4798 25.5799 57.0055 25.3323 56.9359 25.3028C56.6666 25.1888 56.4552 25.0515 56.1695 25.0276C55.705 24.9887 55.1407 24.7928 54.6968 24.6504C53.8583 24.3815 52.9682 24.2633 52.1151 24.0218C51.6798 23.8987 51.3026 23.5634 50.8825 23.3797C50.3733 23.157 49.8032 22.5846 49.2155 22.5846" stroke="#BFBFBF" stroke-linecap="round"/>
<path d="M40.5062 25.5814C40.6746 25.4518 41.0658 25.5203 41.2691 25.5203C41.5752 25.5203 41.8813 25.5203 42.1873 25.5203C42.594 25.5203 42.9803 25.2756 43.3669 25.2756" stroke="#BFBFBF" stroke-linecap="round"/>
<path d="M48.5798 27.3551C48.7376 27.3551 48.8157 27.4731 48.9612 27.4774C49.0986 27.4814 49.2369 27.4774 49.3744 27.4774C50.0158 27.4774 50.6584 27.6609 51.3134 27.6609C52.5103 27.6609 53.6758 27.5385 54.8734 27.5385C55.2877 27.5385 55.7021 27.5385 56.1165 27.5385C56.4982 27.5385 57.0787 27.3739 57.3526 27.1104C57.6729 26.8023 57.5433 26.0546 57.5433 25.6426" stroke="#BFBFBF" stroke-linecap="round"/>
<path d="M56.1448 28.0889C56.1448 28.5879 56.0617 29.044 55.8269 29.4956C55.6402 29.8549 55.3269 30.1661 55.163 30.5387C55.046 30.8047 54.8495 31.0232 54.7462 31.2964C54.6837 31.4619 54.6493 31.6538 54.5555 31.8061C54.462 31.958 54.4468 32.1456 54.3789 32.309C54.3157 32.4612 54.2334 32.6074 54.1741 32.7643C54.0211 33.1691 53.7999 33.5624 53.6161 33.9603C53.5168 34.1751 53.5057 34.5861 53.4783 34.8233C53.4207 35.3225 53.2946 35.9985 53.4254 36.5018C53.4753 36.6942 53.5608 36.8881 53.6161 37.0794C53.6505 37.1986 53.7561 37.2771 53.8174 37.3818C53.8701 37.472 53.8399 37.5754 53.8951 37.6639C54.1279 38.0371 54.2126 38.4566 54.4425 38.8395C54.6795 39.2342 54.6577 39.7265 54.9652 40.1069C55.0488 40.2102 55.0884 40.4879 55.1277 40.6199C55.1942 40.8439 55.3495 41.0235 55.3961 41.2723C55.4627 41.6285 55.607 42.0035 55.7316 42.3392C55.8325 42.6111 55.8054 43.0915 55.7139 43.3653C55.5958 43.7189 55.3835 43.6847 55.0323 43.6847C54.7498 43.6847 54.4563 43.6653 54.1882 43.576C53.9671 43.5023 53.7672 43.387 53.5242 43.3789C53.3449 43.373 52.9597 43.2997 52.8426 43.1682C52.7759 43.0934 52.663 43.1376 52.5813 43.0459C52.456 42.9053 51.9943 42.8393 51.8219 42.7979C51.1952 42.6471 50.5484 42.5316 49.9289 42.3528C49.2772 42.1647 48.6053 42.145 47.9723 41.8771C47.6105 41.7239 47.2523 41.6351 46.8987 41.483C46.532 41.3251 45.9504 41.5711 45.6237 41.3267C45.1639 40.9826 44.6004 40.6976 44.0309 40.5791C43.5638 40.482 43.0535 40.549 42.597 40.4093C42.3027 40.3192 41.989 40.2537 41.7176 40.1069C41.4856 39.9813 41.271 39.8106 41.0289 39.7093C40.2593 39.3874 39.5171 38.8086 38.9947 38.1803C38.8886 38.0528 38.7751 38.0378 38.6627 37.9357C38.5573 37.8399 38.3616 37.8183 38.2812 37.7216C38.1747 37.5934 38.0173 37.4848 37.9034 37.3547C37.704 37.1269 37.6471 36.9062 37.5184 36.6513C37.1866 35.9941 36.6523 35.4209 36.3247 34.7554C36.2044 34.5111 36.0615 34.2157 35.9856 33.9603C35.8882 33.6322 35.3565 33.4719 35.5477 33.1041" stroke="#BFBFBF" stroke-linecap="round"/>
<path d="M55.7634 42.7673C55.846 42.0517 55.8905 41.3601 55.8905 40.6267" stroke="#BFBFBF" stroke-linecap="round"/>
<path d="M55.6362 40.8102C55.6677 40.553 56.198 40.2637 56.3956 40.1307C56.7269 39.9076 57.0593 39.631 57.4162 39.4511C57.8555 39.2298 58.2342 38.7288 58.5323 38.3638C58.8562 37.9672 59.263 37.5856 59.5141 37.1406C59.8526 36.5407 60.6891 36.0879 61.2941 35.7815C61.532 35.6611 61.7684 35.5265 62.0534 35.5539C62.5036 35.5972 62.9383 35.6117 63.3955 35.6117C63.7196 35.6117 64.0424 35.5977 64.3596 35.6728C64.5806 35.7251 65.1904 35.682 65.3485 35.8087C65.4374 35.88 65.3464 36.3325 65.3203 36.4101C65.214 36.726 64.983 36.954 64.8223 37.2324C64.6201 37.5825 64.4744 37.9225 64.0771 38.1532C63.3595 38.5698 62.6061 38.7681 61.8344 39.0706C61.365 39.2546 60.9253 39.4979 60.4394 39.6482C60.114 39.7488 59.7788 39.8195 59.4505 39.92C59.182 40.0022 58.8785 40.0564 58.5994 40.0797C58.2388 40.1099 57.9417 40.3594 57.5928 40.4297C57.4205 40.4644 57.196 40.3916 57.0348 40.4569C56.8825 40.5186 56.7372 40.599 56.5898 40.5044" stroke="#BFBFBF" stroke-linecap="round"/>
<path d="M53.8562 36.2233C55.6967 36.2233 57.514 36.2844 59.3516 36.2844C59.5871 36.2844 59.7351 36.2673 59.9449 36.2097C60.2097 36.1369 60.4988 36.1666 60.7502 36.0976C61.1156 35.9971 61.2736 35.6167 61.5483 35.367C61.9326 35.0179 62.4637 34.6684 62.9222 34.4191C63.1089 34.3175 63.4307 34.0667 63.519 33.8754C63.5895 33.7228 63.8689 33.6458 63.964 33.5186C64.368 32.9789 65.0473 32.7799 65.4862 32.2785C65.8181 31.8993 66.2982 31.719 66.6976 31.4188C67.0809 31.1308 67.707 30.7912 67.969 30.4131" stroke="#BFBFBF" stroke-linecap="round"/>
<path d="M53.8562 35.8562C54.1261 35.6226 54.4004 35.2741 54.5837 34.9694C54.7954 34.6178 55.1704 34.4537 55.5055 34.2321C56.2323 33.7514 57.1798 33.5502 57.9566 33.1278C58.3052 32.9382 58.5572 32.6194 58.8854 32.4041C59.312 32.1243 59.809 31.8961 60.178 31.5411C60.3216 31.4029 60.4718 31.2524 60.6513 31.1537C60.7689 31.0891 60.7445 30.9622 60.8243 30.8683C61.0586 30.5929 61.3689 30.3741 61.6154 30.1072C61.8571 29.8457 62.1396 29.6426 62.4242 29.4345C62.7619 29.1876 62.9837 28.7066 63.2506 28.3947C63.3457 28.2836 63.4491 28.155 63.5473 28.055C63.5972 28.0041 63.8178 27.9666 63.7451 27.9666C63.3143 27.9666 62.897 27.9951 62.4878 27.8443C62.0271 27.6746 61.6422 27.5614 61.2305 27.3075C61.0016 27.1663 60.6193 27.1534 60.3546 27.0492C60.2027 26.9894 60.0787 26.9881 59.9167 26.9881C59.515 26.9881 58.9308 26.8406 58.5605 26.6823C58.4337 26.628 58.2948 26.554 58.1649 26.5124C57.9997 26.4594 57.9958 26.5175 58.1791 26.3765" stroke="#BFBFBF" stroke-linecap="round"/>
<path d="M55.8905 20.8722C56.5885 21.0271 57.2285 21.3204 57.9107 21.5313C58.6814 21.7697 59.4677 22.0078 60.1745 22.374C60.4453 22.5143 60.7745 22.5509 61.0115 22.7375C61.1378 22.8369 61.2574 22.8141 61.4071 22.8429C61.6417 22.888 61.8481 23.028 62.0816 23.0671C62.3959 23.1197 62.6605 23.2725 62.9469 23.4103C63.2964 23.5784 63.6518 23.7111 63.9994 23.869C64.1909 23.956 64.6467 23.9977 64.7622 24.1612C64.8482 24.2828 64.8079 24.6537 64.7764 24.7864C64.7272 24.9933 64.5422 25.2028 64.5362 25.398C64.5295 25.6163 64.4726 25.814 64.4726 26.0368C64.4726 26.2896 64.312 26.546 64.2855 26.8013C64.2579 27.0661 64.3274 27.2942 64.1866 27.5352C64.0089 27.8391 63.8228 28.1296 63.7098 28.456" stroke="#BFBFBF" stroke-linecap="round"/>
<path d="M63.0741 27.8444C62.4165 27.8444 61.654 27.8662 61.1387 27.491C60.7732 27.2249 60.3328 27.0615 59.9591 26.8047C59.6861 26.6171 59.3963 26.5167 59.0655 26.4955C58.3681 26.4507 57.5131 26.0416 57.0348 25.5815" stroke="#BFBFBF" stroke-linecap="round"/>
<path d="M65.1719 36.7125C65.2017 36.5979 66.1621 36.4118 66.2915 36.3795C66.5642 36.3115 66.8264 36.3718 67.0932 36.2708C67.3204 36.1848 67.601 36.1009 67.849 36.1009C68.3074 36.1009 68.4587 35.7611 68.8873 35.6456C69.1996 35.5615 69.327 35.5695 69.5901 35.367C69.6358 35.3318 68.9206 33.8288 68.7955 33.6817C68.6295 33.4866 68.4557 33.2623 68.2233 33.1381C67.9663 33.0007 67.7346 32.8535 67.4605 32.7405C67.2231 32.6426 66.9569 32.648 66.7117 32.5536C66.5058 32.4744 65.9048 32.3737 65.8076 32.1867" stroke="#BFBFBF" stroke-linecap="round"/>
<path d="M67.7783 30.7188C67.693 30.7086 67.5756 30.5215 67.5099 30.4606C67.2357 30.2062 66.9491 29.9535 66.6658 29.7097C66.4057 29.4858 66.2417 29.0409 66.076 28.7481C65.8852 28.4109 65.6956 28.0637 65.518 27.722C65.2953 27.2935 65.1719 26.8048 65.1719 26.3153C65.1719 25.8288 64.9313 25.0862 65.3697 24.6946C65.9204 24.2026 66.3873 23.6034 67.1144 23.3457C67.3879 23.2487 67.6561 23.1882 67.9337 23.1214C68.256 23.0439 68.5465 22.8405 68.8626 22.7341C69.6874 22.4563 70.5892 22.5393 71.4301 22.3127C72.1557 22.1173 72.8563 21.9941 73.5986 21.8778C74.0323 21.8099 74.4595 21.7161 74.8948 21.6638C75.106 21.6384 75.2609 21.4449 75.4705 21.4225C75.524 21.4168 75.5501 21.3432 75.5976 21.3478C75.713 21.3589 75.6612 21.8034 75.6612 21.8812C75.6612 22.2944 75.6952 22.7241 75.647 23.135C75.5597 23.881 75.364 24.5865 75.2303 25.3232C75.1669 25.6725 75.017 26.0215 74.9266 26.3697C74.8568 26.638 74.7506 27.0031 74.6158 27.2463C74.2767 27.858 74.0627 28.4173 73.4997 28.8976C73.1548 29.1919 72.907 29.4258 72.4791 29.6179C72.2315 29.7291 71.9888 29.9167 71.7339 29.9985C71.0174 30.2283 70.2347 30.3823 69.4947 30.4878C69.1705 30.534 68.2134 30.7188 68.5412 30.7188" stroke="#BFBFBF" stroke-linecap="round"/>
<path d="M72.7369 29.7403C72.9478 29.7403 73.143 29.6584 73.3479 29.618C73.8776 29.5134 74.384 29.4956 74.9231 29.4956C75.4154 29.4956 75.863 29.3653 76.3252 29.217C76.746 29.0821 77.2493 28.9076 77.6955 28.884C77.8972 28.8734 78.5357 28.8342 78.7126 28.6734C78.8725 28.5281 79.1438 28.5218 79.2812 28.3676C79.3139 28.3309 79.4483 28.2393 79.5002 28.2792C79.5471 28.3153 79.0776 28.87 79.0375 28.9384C78.7089 29.5005 78.2201 30.0153 77.6354 30.3247C76.9161 30.7053 76.3026 30.7146 75.5199 30.8276C74.9449 30.9106 74.3359 30.9635 73.7576 30.9635C72.9944 30.9635 72.2759 31.147 71.5149 31.147C71.167 31.147 70.7348 31.2134 70.413 31.0586C70.3138 31.0109 69.8565 30.7188 69.8762 30.7188" stroke="#BFBFBF" stroke-linecap="round"/>
<path d="M67.7148 33.471C69.4533 33.471 71.1619 33.6225 72.8993 33.5321C73.1529 33.519 73.4478 33.4441 73.6905 33.3792C74.093 33.2717 74.4473 33.2042 74.8665 33.1618C75.0346 33.1448 75.1735 33.0261 75.3433 32.9953C75.5796 32.9524 75.8162 32.9205 76.0567 32.9205C76.4171 32.9205 76.7789 32.739 77.1374 32.6623C77.9943 32.4791 78.8347 32.0067 79.5991 31.6022C79.898 31.444 80.1312 31.0971 80.4431 30.977C80.6763 30.8873 80.7336 30.6424 80.8881 30.4877C81.2405 30.1352 80.6719 30.1689 80.4008 30.2941C79.85 30.5484 79.2221 30.5353 78.6208 30.5353C78.1792 30.5353 77.7463 30.6576 77.2999 30.6576C77.0322 30.6576 76.7194 30.6073 76.4876 30.7188" stroke="#BFBFBF" stroke-linecap="round"/>
<path d="M75.1526 22.7681C74.9829 22.4234 75.0095 22.0418 74.8206 21.7148C74.6281 21.3815 74.7573 21.0044 74.5805 20.6547C74.4454 20.3876 74.4708 20.1791 74.4533 19.8936C74.4381 19.6451 74.1639 19.2075 74.0436 18.9762C73.7459 18.4033 73.6218 17.6472 73.4998 17.0191C73.3653 16.3271 73.2062 15.6215 73.0265 14.9396C72.9356 14.5945 72.6733 14.2896 72.6733 13.9339C72.6733 13.7799 72.6733 13.6258 72.6733 13.4718C72.6733 13.2432 72.2013 13.9184 72.1648 13.9747C71.5538 14.9134 70.6823 16.0521 70.639 17.2162C70.6153 17.8548 70.1398 18.4405 70.0669 19.0713C70.0458 19.2541 69.8712 19.4227 69.8267 19.615C69.791 19.7698 69.8083 19.9209 69.7632 20.0771C69.6743 20.3848 69.6 20.7922 69.4312 21.0692C69.2071 21.4369 69.1133 21.8567 69.1133 22.2788" stroke="#BFBFBF" stroke-linecap="round"/>
<path d="M70.4483 16.6521C70.422 16.1958 70.1899 15.8436 70.081 15.4153C69.956 14.9233 69.8558 14.3675 69.6855 13.8863C69.5702 13.5605 69.6417 13.201 69.5901 12.8636C69.5423 12.5507 69.5447 12.2392 69.6078 11.9292C69.7081 11.4358 69.8886 10.9299 70.0351 10.4444C70.1094 10.1983 70.1862 9.90372 70.1941 9.64589C70.197 9.5484 70.2333 9.26669 70.2612 9.36048C70.3974 9.81937 70.7226 10.0306 70.9569 10.4138C71.1407 10.7144 71.4518 10.9897 71.6703 11.27C71.8913 11.5534 72.1437 11.807 72.3908 12.0447C72.6403 12.2848 73.0847 12.5482 73.1854 12.8874C73.2527 13.1137 73.4251 13.349 73.5351 13.5703C73.9419 14.3888 74.3003 15.3317 74.4392 16.2376C74.4806 16.5077 74.5551 16.689 74.6723 16.9307C74.741 17.0724 74.7092 17.2395 74.7853 17.386C75.0375 17.8712 74.9423 18.3941 75.0608 18.915C75.2464 19.7311 75.366 20.4586 76.1062 20.9333" stroke="#BFBFBF" stroke-linecap="round"/>
<path d="M73.3091 14.9396C73.3235 15.1891 73.4533 15.3996 73.5987 15.5988C73.7605 15.8205 73.7798 16.2318 73.8176 16.4958C73.8811 16.9385 73.8947 17.4257 74.0966 17.8141C74.1823 17.979 74.1648 18.2378 74.1991 18.4189C74.2329 18.5981 74.3837 18.7225 74.4392 18.8946C74.5174 19.137 74.6696 19.6857 74.8983 19.8324" stroke="#BFBFBF" stroke-linecap="round"/>
<path d="M75.3433 21.0556C75.2833 21.5754 75.2175 22.1229 75.1491 22.6491C75.1042 22.9943 75.0992 23.3474 75.0113 23.6855C74.8251 24.4022 74.7985 25.1705 74.531 25.8396C74.4333 26.084 74.2769 26.3835 74.1037 26.5871C73.8895 26.839 73.8403 27.1902 73.641 27.4298C73.4012 27.7182 72.9912 28.3395 72.9912 28.7006" stroke="#BFBFBF" stroke-linecap="round"/>
<path d="M70.5755 9.00713C70.5918 8.58295 70.9358 8.1827 71.1194 7.80432C71.2268 7.58278 71.3329 7.33922 71.4796 7.13835C71.6219 6.94352 71.6474 6.72967 71.7833 6.53355C72.254 5.85429 72.2643 4.9858 72.6698 4.27064C72.875 3.90864 73.1713 3.59972 73.4044 3.2547C73.5884 2.98238 73.9448 2.63666 73.9448 2.28634C73.9448 2.2833 74.1442 2.63417 74.1849 2.72125C74.3269 3.0249 74.5625 3.25899 74.8595 3.43478C75.2019 3.6375 75.5071 3.86431 75.8766 4.04978C76.1609 4.19248 76.4974 4.15795 76.7701 4.34539C76.912 4.44284 77.1012 4.67862 77.1198 4.40994C77.149 3.98861 77.0281 3.58844 76.8832 3.19694C76.7392 2.80819 76.7419 2.43818 76.7419 2.0349C76.7419 1.80065 76.429 1.37435 76.2969 1.16507C76.1083 0.866314 75.9144 1.02053 75.753 1.25342C75.6304 1.43032 75.3276 1.70495 75.089 1.7291C74.9553 1.74265 74.9154 1.82818 74.8312 1.90919C74.7401 1.99686 74.5905 1.98687 74.4816 2.04849C74.402 2.09354 74.3824 2.19472 74.2626 2.25236C74.1515 2.30581 74.0482 2.39669 73.9448 2.46302" stroke="#BFBFBF" stroke-linecap="round"/>
<path d="M76.4876 4.11434C76.0056 4.57811 75.6928 5.28348 75.3928 5.86079C75.1611 6.30653 74.9656 6.68435 74.8065 7.16553C74.7108 7.4549 74.7532 7.79032 74.6158 8.06255C74.0984 9.0874 73.9561 10.2696 73.4362 11.27" stroke="#BFBFBF" stroke-linecap="round"/>
</svg>
